<svg id="Layer_1" data-name="Layer 1" xmlns="http://www.w3.org/2000/svg" xmlns:xlink="http://www.w3.org/1999/xlink" viewBox="0 0 226.51 30.37"><defs><style>.cls-1{fill:url(#New_Gradient_Swatch_copy_46);}.cls-2{fill:url(#New_Gradient_Swatch_copy_46-2);}.cls-3{fill:url(#New_Gradient_Swatch_copy_46-3);}.cls-4{fill:url(#New_Gradient_Swatch_copy_46-4);}.cls-5{fill:#fff;}</style><linearGradient id="New_Gradient_Swatch_copy_46" x1="42.97" y1="35.77" x2="27.04" y2="45.77" gradientUnits="userSpaceOnUse"><stop offset="0" stop-color="#8645ff"/><stop offset="1" stop-color="#44fac3"/></linearGradient><linearGradient id="New_Gradient_Swatch_copy_46-2" x1="22.15" y1="14.08" x2="26.04" y2="26.04" xlink:href="#New_Gradient_Swatch_copy_46"/><linearGradient id="New_Gradient_Swatch_copy_46-3" x1="47.49" y1="23.79" x2="31.55" y2="33.8" xlink:href="#New_Gradient_Swatch_copy_46"/><linearGradient id="New_Gradient_Swatch_copy_46-4" x1="39.93" y1="21.07" x2="51.63" y2="37.54" xlink:href="#New_Gradient_Swatch_copy_46"/></defs><path class="cls-1" d="M33.74,38.38V34.75a4.7,4.7,0,0,1,4.69-4.69H34.1a9,9,0,0,0-9,8.8,13.37,13.37,0,0,0,13,12.89l8.67-8.67H38.43A4.71,4.71,0,0,1,33.74,38.38Z" transform="translate(-25.06 -21.38)"/><polyline class="cls-2" points="30.37 30.37 30.37 21.69 21.69 21.69 21.69 30.37"/><path class="cls-3" d="M40.25,21.38H38.43A13.39,13.39,0,0,0,25.06,34.75v3.63c0,.16,0,.32,0,.48a9,9,0,0,1,9-8.8h8a4.71,4.71,0,0,1,4.7,4.69V27.9A6.52,6.52,0,0,0,40.25,21.38Z" transform="translate(-25.06 -21.38)"/><path class="cls-4" d="M42.06,21.38H40.25a6.52,6.52,0,0,1,6.51,6.52V43.08h0l8.67-8.67A13.4,13.4,0,0,0,42.06,21.38Z" transform="translate(-25.06 -21.38)"/><path class="cls-5" d="M76,38.86H74.14v8.28a3.44,3.44,0,0,1-.72,2.41,2.72,2.72,0,0,1-3.82,0,3.63,3.63,0,0,1-.68-2.38V27.31a3.38,3.38,0,0,1,.75-2.44,3.39,3.39,0,0,1,2.45-.75h8.49a28.25,28.25,0,0,1,3,.14,7.75,7.75,0,0,1,2.25.61A6.56,6.56,0,0,1,88,26.33a6.33,6.33,0,0,1,1.41,2.21,7.35,7.35,0,0,1,.49,2.66,6.43,6.43,0,0,1-1.63,4.6,9.32,9.32,0,0,1-4.93,2.45A9.4,9.4,0,0,1,86,40.43a21.1,21.1,0,0,1,2.26,3.07,23.07,23.07,0,0,1,1.55,2.93,5.69,5.69,0,0,1,.55,1.8,1.88,1.88,0,0,1-.32,1,2.2,2.2,0,0,1-.89.79,2.71,2.71,0,0,1-1.3.29,2.51,2.51,0,0,1-1.48-.41,3.92,3.92,0,0,1-1-1c-.28-.43-.67-1-1.16-1.87l-2.1-3.48a19.3,19.3,0,0,0-2-2.92,5.08,5.08,0,0,0-1.8-1.37A6.33,6.33,0,0,0,76,38.86ZM79,28H74.14v7.08h4.67A13,13,0,0,0,82,34.79a3.69,3.69,0,0,0,2-1.1,3.19,3.19,0,0,0,.67-2.16,3.37,3.37,0,0,0-.54-1.89,3.33,3.33,0,0,0-1.51-1.22A10.89,10.89,0,0,0,79,28Z" transform="translate(-25.06 -21.38)"/><path class="cls-5" d="M107,41.75H97.62a6.3,6.3,0,0,0,.66,2.88,4.42,4.42,0,0,0,4,2.51,5.6,5.6,0,0,0,1.58-.2,5.32,5.32,0,0,0,1.38-.63,11.65,11.65,0,0,0,1.23-.93c.37-.32.86-.77,1.46-1.33a1.55,1.55,0,0,1,1-.32,1.76,1.76,0,0,1,1.2.41,1.45,1.45,0,0,1,.45,1.14,3.13,3.13,0,0,1-.51,1.52,6,6,0,0,1-1.53,1.67,8.86,8.86,0,0,1-2.59,1.33,11.2,11.2,0,0,1-3.58.52,9.58,9.58,0,0,1-7.19-2.63,9.84,9.84,0,0,1-2.56-7.16,12,12,0,0,1,.63-3.94,8.54,8.54,0,0,1,1.85-3.12,7.91,7.91,0,0,1,3-2,10.74,10.74,0,0,1,3.93-.69A9.35,9.35,0,0,1,107,32,7.84,7.84,0,0,1,110,35a8.05,8.05,0,0,1,1,3.83c0,1.21-.34,2-1,2.35A6.44,6.44,0,0,1,107,41.75ZM97.62,39h8.7A5.82,5.82,0,0,0,105,35.34a4,4,0,0,0-3-1.22A3.83,3.83,0,0,0,99,35.36,6.15,6.15,0,0,0,97.62,39Z" transform="translate(-25.06 -21.38)"/><path class="cls-5" d="M132.08,28.42h-5.7V47.14a3.44,3.44,0,0,1-.72,2.4,2.63,2.63,0,0,1-3.75,0,3.39,3.39,0,0,1-.73-2.39V28.42h-5.7a2.82,2.82,0,0,1-2-.59,2.19,2.19,0,0,1,0-3.13,2.92,2.92,0,0,1,2-.58h16.6a2.91,2.91,0,0,1,2,.59,2,2,0,0,1,.66,1.57,2,2,0,0,1-.67,1.55A2.91,2.91,0,0,1,132.08,28.42Z" transform="translate(-25.06 -21.38)"/><path class="cls-5" d="M141.73,26.59v7.12A10.39,10.39,0,0,1,143.51,32a6.49,6.49,0,0,1,1.93-.92,8.17,8.17,0,0,1,2.26-.31,6.65,6.65,0,0,1,3.25.78,6.05,6.05,0,0,1,2.91,4.17,16.14,16.14,0,0,1,.17,2.45v9.2a3.19,3.19,0,0,1-.66,2.18,2.23,2.23,0,0,1-1.75.73q-2.37,0-2.37-2.91V39.3a7.4,7.4,0,0,0-.69-3.54,2.69,2.69,0,0,0-2.6-1.24,3.89,3.89,0,0,0-2.31.73,4.43,4.43,0,0,0-1.54,2,13,13,0,0,0-.38,3.81v6.35a3.29,3.29,0,0,1-.64,2.17,2.23,2.23,0,0,1-1.79.74q-2.37,0-2.37-2.91V26.59a3.3,3.3,0,0,1,.62-2.18,2.17,2.17,0,0,1,1.75-.73,2.26,2.26,0,0,1,1.79.73A3.3,3.3,0,0,1,141.73,26.59Z" transform="translate(-25.06 -21.38)"/><path class="cls-5" d="M161.2,28.58a2.49,2.49,0,0,1-1.71-.62,2.16,2.16,0,0,1-.71-1.74,2.13,2.13,0,0,1,.73-1.67,2.43,2.43,0,0,1,1.69-.66,2.57,2.57,0,0,1,1.66.59,2.14,2.14,0,0,1,.72,1.74,2.22,2.22,0,0,1-.71,1.74A2.45,2.45,0,0,1,161.2,28.58Zm2.38,5V47.41a3.1,3.1,0,0,1-.69,2.18,2.28,2.28,0,0,1-1.74.73,2.17,2.17,0,0,1-1.71-.75,3.21,3.21,0,0,1-.66-2.16V33.68a3.09,3.09,0,0,1,.66-2.15,2.21,2.21,0,0,1,1.71-.72,2.31,2.31,0,0,1,1.74.72A2.79,2.79,0,0,1,163.58,33.54Z" transform="translate(-25.06 -21.38)"/><path class="cls-5" d="M172.89,33.47v.58a8.54,8.54,0,0,1,2.77-2.46,7.38,7.38,0,0,1,3.46-.78,6.92,6.92,0,0,1,3.39.83A5.25,5.25,0,0,1,184.74,34a5.59,5.59,0,0,1,.62,1.9,20.16,20.16,0,0,1,.14,2.6v8.93a3.19,3.19,0,0,1-.66,2.18,2.19,2.19,0,0,1-1.72.73,2.23,2.23,0,0,1-1.74-.75,3.21,3.21,0,0,1-.66-2.16v-8a8,8,0,0,0-.66-3.63,2.69,2.69,0,0,0-2.63-1.26,3.89,3.89,0,0,0-2.34.77,4.43,4.43,0,0,0-1.55,2.1,15.19,15.19,0,0,0-.35,4v6a3,3,0,0,1-.68,2.18,2.25,2.25,0,0,1-1.74.73,2.19,2.19,0,0,1-1.71-.75,3.21,3.21,0,0,1-.67-2.16V33.54a3,3,0,0,1,.6-2.05,2.08,2.08,0,0,1,1.64-.68,2.21,2.21,0,0,1,1.14.3,2.18,2.18,0,0,1,.82.9A3.22,3.22,0,0,1,172.89,33.47Z" transform="translate(-25.06 -21.38)"/><path class="cls-5" d="M202.23,48.13l-4.24-7-2.6,2.46v3.81a2.92,2.92,0,0,1-.73,2.14,2.25,2.25,0,0,1-1.68.74,2.19,2.19,0,0,1-1.74-.73,3.3,3.3,0,0,1-.63-2.18V27a4.08,4.08,0,0,1,.62-2.44,2,2,0,0,1,1.75-.83,2.2,2.2,0,0,1,1.76.75,3.32,3.32,0,0,1,.65,2.23V38.3l5.4-5.66a14,14,0,0,1,1.53-1.44,2.28,2.28,0,0,1,2.78.18,1.93,1.93,0,0,1,.59,1.44c0,.7-.65,1.64-1.95,2.81L201.19,38l4.93,7.73c.36.58.62,1,.78,1.31a1.78,1.78,0,0,1,.23.85,2.52,2.52,0,0,1-.62,1.81,2.18,2.18,0,0,1-1.64.65,1.83,1.83,0,0,1-1.36-.47A12.33,12.33,0,0,1,202.23,48.13Z" transform="translate(-25.06 -21.38)"/><path class="cls-5" d="M236.74,47l-1.23-3.24H225L223.8,47a11.49,11.49,0,0,1-1.23,2.61,2,2,0,0,1-1.67.67,2.44,2.44,0,0,1-1.74-.72A2.18,2.18,0,0,1,218.4,48a3.55,3.55,0,0,1,.18-1.09c.12-.38.31-.9.58-1.57l6.59-16.73c.19-.48.41-1.06.68-1.73a8.46,8.46,0,0,1,.84-1.68,3.32,3.32,0,0,1,1.18-1.08,3.55,3.55,0,0,1,1.8-.41,3.6,3.6,0,0,1,1.82.41,3.45,3.45,0,0,1,1.18,1.06,7.24,7.24,0,0,1,.75,1.4c.21.5.47,1.16.79,2l6.73,16.63a8.34,8.34,0,0,1,.79,2.76,2.29,2.29,0,0,1-.75,1.65,2.45,2.45,0,0,1-1.8.74,2.26,2.26,0,0,1-1-.22,2,2,0,0,1-.74-.59,5.34,5.34,0,0,1-.64-1.16C237.1,47.83,236.9,47.37,236.74,47ZM226.4,39.81h7.7l-3.88-10.63Z" transform="translate(-25.06 -21.38)"/><path class="cls-5" d="M246.35,47.14V26.84a3.41,3.41,0,0,1,.72-2.37,2.4,2.4,0,0,1,1.87-.79,2.47,2.47,0,0,1,1.9.78,3.36,3.36,0,0,1,.73,2.38v20.3a3.39,3.39,0,0,1-.73,2.39,2.45,2.45,0,0,1-1.9.79,2.39,2.39,0,0,1-1.86-.8A3.39,3.39,0,0,1,246.35,47.14Z" transform="translate(-25.06 -21.38)"/></svg>