<svg id="Layer_1" data-name="Layer 1" xmlns="http://www.w3.org/2000/svg" xmlns:xlink="http://www.w3.org/1999/xlink" viewBox="0 0 262.17 31.88"><defs><style>.cls-1{fill:url(#New_Gradient_Swatch_copy_46);}.cls-2{fill:url(#New_Gradient_Swatch_copy_46-2);}.cls-3{fill:url(#New_Gradient_Swatch_copy_46-3);}.cls-4{fill:url(#New_Gradient_Swatch_copy_46-4);}.cls-5{fill:#785fff;}</style><linearGradient id="New_Gradient_Swatch_copy_46" x1="34.47" y1="53.1" x2="18.35" y2="63.22" gradientUnits="userSpaceOnUse"><stop offset="0" stop-color="#8645ff"/><stop offset="1" stop-color="#44fac3"/></linearGradient><linearGradient id="New_Gradient_Swatch_copy_46-2" x1="22.41" y1="14.41" x2="26.33" y2="26.51" xlink:href="#New_Gradient_Swatch_copy_46"/><linearGradient id="New_Gradient_Swatch_copy_46-3" x1="39.04" y1="40.99" x2="22.92" y2="51.1" xlink:href="#New_Gradient_Swatch_copy_46"/><linearGradient id="New_Gradient_Swatch_copy_46-4" x1="31.4" y1="38.23" x2="43.23" y2="54.89" xlink:href="#New_Gradient_Swatch_copy_46"/></defs><path class="cls-1" d="M25.14,55.74V52.07a4.74,4.74,0,0,1,4.74-4.74H25.49a9.13,9.13,0,0,0-9.12,8.89,13.54,13.54,0,0,0,13.16,13l8.77-8.77H29.88A4.75,4.75,0,0,1,25.14,55.74Z" transform="translate(-16.36 -38.38)"/><polyline class="cls-2" points="30.72 30.89 30.72 22.11 21.94 22.11 21.94 30.89"/><path class="cls-3" d="M31.71,38.55H29.88A13.54,13.54,0,0,0,16.36,52.07v3.67c0,.16,0,.32,0,.48a9.13,9.13,0,0,1,9.12-8.89h8.06a4.75,4.75,0,0,1,4.75,4.74V45.14A6.59,6.59,0,0,0,31.71,38.55Z" transform="translate(-16.36 -38.38)"/><path class="cls-4" d="M33.55,38.55H31.71a6.59,6.59,0,0,1,6.59,6.59V60.49h0l8.77-8.77A13.54,13.54,0,0,0,33.55,38.55Z" transform="translate(-16.36 -38.38)"/><path class="cls-5" d="M77.72,69.44H74.58L66.93,55.29H60.52V69.44H57.71v-31H68.5a8.21,8.21,0,0,1,6,2.5A8.31,8.31,0,0,1,77,47,7.91,7.91,0,0,1,75,52.44a8.11,8.11,0,0,1-5.17,2.73Zm-9.3-16.5a6,6,0,0,0,6-6,5.77,5.77,0,0,0-1.78-4.24,5.87,5.87,0,0,0-4.26-1.76h-7.9v12Z" transform="translate(-16.36 -38.38)"/><path class="cls-5" d="M86.16,40.9V52.65H98.32v2.52H86.16V66.91h13.89v2.53H83.35v-31h16.7V40.9Z" transform="translate(-16.36 -38.38)"/><path class="cls-5" d="M124.82,40.9h-8.68V69.4h-2.77V40.9h-8.69V38.38h20.14Z" transform="translate(-16.36 -38.38)"/><path class="cls-5" d="M152.69,38.42v31h-2.77V55.17H132.18V69.44h-2.82v-31h2.82V52.65h17.74V38.42Z" transform="translate(-16.36 -38.38)"/><path class="cls-5" d="M162.53,38.42h2.81v31h-2.81Z" transform="translate(-16.36 -38.38)"/><path class="cls-5" d="M198.93,38.42v31h-2.52l-19.69-26.3v26.3h-2.81v-31h2.53l19.72,26.3V38.42Z" transform="translate(-16.36 -38.38)"/><path class="cls-5" d="M227.7,70.26l-17.12-17V69.44h-2.81v-31h2.81V51.78l13.28-13.36h3.64l-14.06,14,14.26,14.1Z" transform="translate(-16.36 -38.38)"/><path class="cls-5" d="M258.4,63.56h-14l-2.19,5.88h-6.74l12.44-31h7l12.45,31h-6.74Zm-1.91-5.12-5.08-13.69-5.13,13.69Z" transform="translate(-16.36 -38.38)"/><path class="cls-5" d="M272.29,38.42h6.24v31h-6.24Z" transform="translate(-16.36 -38.38)"/></svg>